HIERARCHY
ROOT Hips
{
	OFFSET -14.64140 90.27770 -84.91600
	CHANNELS 6 Xposition Yposition Zposition Zrotation Xrotation Yrotation
	JOINT Spine
	{
		OFFSET 0.00000 13.20850 -1.60436
		CHANNELS 3 Zrotation Xrotation Yrotation
		JOINT Spine1
		{
			OFFSET 0.00000 8.61716 0.00000
			CHANNELS 3 Zrotation Xrotation Yrotation
			JOINT Spine2
			{
				OFFSET 0.00000 8.61717 0.00000
				CHANNELS 3 Zrotation Xrotation Yrotation
				JOINT Spine3
				{
					OFFSET 0.00000 8.61717 0.00000
					CHANNELS 3 Zrotation Xrotation Yrotation
					JOINT Neck
					{
						OFFSET 0.00000 11.07920 1.10792
						CHANNELS 3 Zrotation Xrotation Yrotation
						JOINT Neck1
						{
							OFFSET 0.00000 7.08032 0.00000
							CHANNELS 3 Zrotation Xrotation Yrotation
							JOINT Head
							{
								OFFSET 0.00000 7.08031 0.00000
								CHANNELS 3 Zrotation Xrotation Yrotation
								End site
								{
									OFFSET 0.00000 0.00000 0.00000
								}
							}
						}
					}
					JOINT RightShoulder
					{
						OFFSET -0.01000 7.91373 5.19711
						CHANNELS 3 Zrotation Xrotation Yrotation
						JOINT RightArm
						{
							OFFSET -18.41580 0.00000 0.00000
							CHANNELS 3 Zrotation Xrotation Yrotation
							JOINT RightForeArm
							{
								OFFSET -29.11090 0.00000 0.00000
								CHANNELS 3 Zrotation Xrotation Yrotation
								JOINT RightHand
								{
									OFFSET -24.65040 0.00000 0.00000
									CHANNELS 3 Zrotation Xrotation Yrotation
									JOINT RightHandThumb1
									{
										OFFSET -5.35114 -0.85590 3.97906
										CHANNELS 3 Zrotation Xrotation Yrotation
										JOINT RightHandThumb2
										{
											OFFSET -4.52789 0.00000 0.00000
											CHANNELS 3 Zrotation Xrotation Yrotation
											JOINT RightHandThumb3
											{
												OFFSET -2.46976 0.00000 0.00000
												CHANNELS 3 Zrotation Xrotation Yrotation
												End site
												{
													OFFSET 0.00000 0.00000 0.00000
												}
											}
										}
									}
									JOINT RightHandIndex1
									{
										OFFSET -14.26970 0.00000 2.88139
										CHANNELS 3 Zrotation Xrotation Yrotation
										JOINT RightHandIndex2
										{
											OFFSET -5.48836 0.00000 0.00000
											CHANNELS 3 Zrotation Xrotation Yrotation
											JOINT RightHandIndex3
											{
												OFFSET -3.01859 0.00000 0.00000
												CHANNELS 3 Zrotation Xrotation Yrotation
												End site
												{
													OFFSET 0.00000 0.00000 0.00000
												}
											}
										}
									}
									JOINT RightHandMiddle1
									{
										OFFSET -14.26970 0.00000 -0.09147
										CHANNELS 3 Zrotation Xrotation Yrotation
										JOINT RightHandMiddle2
										{
											OFFSET -6.17441 0.00000 0.00000
											CHANNELS 3 Zrotation Xrotation Yrotation
											JOINT RightHandMiddle3
											{
												OFFSET -3.56743 0.00000 0.00000
												CHANNELS 3 Zrotation Xrotation Yrotation
												End site
												{
													OFFSET 0.00000 0.00000 0.00000
												}
											}
										}
									}
									JOINT RightHandRing1
									{
										OFFSET -12.69180 0.00000 -3.06433
										CHANNELS 3 Zrotation Xrotation Yrotation
										JOINT RightHandRing2
										{
											OFFSET -5.62556 0.00000 0.00000
											CHANNELS 3 Zrotation Xrotation Yrotation
											JOINT RightHandRing3
											{
												OFFSET -3.56744 0.00000 0.00000
												CHANNELS 3 Zrotation Xrotation Yrotation
												End site
												{
													OFFSET 0.00000 0.00000 0.00000
												}
											}
										}
									}
									JOINT RightHandPinky1
									{
										OFFSET -11.11390 0.00000 -6.03719
										CHANNELS 3 Zrotation Xrotation Yrotation
										JOINT RightHandPinky2
										{
											OFFSET -4.52789 0.00000 0.00000
											CHANNELS 3 Zrotation Xrotation Yrotation
											JOINT RightHandPinky3
											{
												OFFSET -2.46976 0.00000 0.00000
												CHANNELS 3 Zrotation Xrotation Yrotation
												End site
												{
													OFFSET 0.00000 0.00000 0.00000
												}
											}
										}
									}
								}
							}
						}
					}
					JOINT LeftShoulder
					{
						OFFSET 0.01000 7.91373 5.19711
						CHANNELS 3 Zrotation Xrotation Yrotation
						JOINT LeftArm
						{
							OFFSET 18.41580 0.00000 0.00000
							CHANNELS 3 Zrotation Xrotation Yrotation
							JOINT LeftForeArm
							{
								OFFSET 29.11090 0.00000 0.00000
								CHANNELS 3 Zrotation Xrotation Yrotation
								JOINT LeftHand
								{
									OFFSET 24.65040 0.00000 0.00000
									CHANNELS 3 Zrotation Xrotation Yrotation
									JOINT LeftHandThumb1
									{
										OFFSET 5.35114 -0.85590 3.97906
										CHANNELS 3 Zrotation Xrotation Yrotation
										JOINT LeftHandThumb2
										{
											OFFSET 4.52789 0.00000 0.00000
											CHANNELS 3 Zrotation Xrotation Yrotation
											JOINT LeftHandThumb3
											{
												OFFSET 2.46977 0.00000 0.00000
												CHANNELS 3 Zrotation Xrotation Yrotation
												End site
												{
													OFFSET 0.00000 0.00000 0.00000
												}
											}
										}
									}
									JOINT LeftHandIndex1
									{
										OFFSET 14.26970 0.00000 2.88139
										CHANNELS 3 Zrotation Xrotation Yrotation
										JOINT LeftHandIndex2
										{
											OFFSET 5.48836 0.00000 0.00000
											CHANNELS 3 Zrotation Xrotation Yrotation
											JOINT LeftHandIndex3
											{
												OFFSET 3.01859 0.00000 0.00000
												CHANNELS 3 Zrotation Xrotation Yrotation
												End site
												{
													OFFSET 0.00000 0.00000 0.00000
												}
											}
										}
									}
									JOINT LeftHandMiddle1
									{
										OFFSET 14.26970 0.00000 -0.09147
										CHANNELS 3 Zrotation Xrotation Yrotation
										JOINT LeftHandMiddle2
										{
											OFFSET 6.17440 0.00000 0.00000
											CHANNELS 3 Zrotation Xrotation Yrotation
											JOINT LeftHandMiddle3
											{
												OFFSET 3.56744 0.00000 0.00000
												CHANNELS 3 Zrotation Xrotation Yrotation
												End site
												{
													OFFSET 0.00000 0.00000 0.00000
												}
											}
										}
									}
									JOINT LeftHandRing1
									{
										OFFSET 12.69180 0.00000 -3.06433
										CHANNELS 3 Zrotation Xrotation Yrotation
										JOINT LeftHandRing2
										{
											OFFSET 5.62556 0.00000 0.00000
											CHANNELS 3 Zrotation Xrotation Yrotation
											JOINT LeftHandRing3
											{
												OFFSET 3.56744 0.00000 0.00000
												CHANNELS 3 Zrotation Xrotation Yrotation
												End site
												{
													OFFSET 0.00000 0.00000 0.00000
												}
											}
										}
									}
									JOINT LeftHandPinky1
									{
										OFFSET 11.11390 0.00000 -6.03719
										CHANNELS 3 Zrotation Xrotation Yrotation
										JOINT LeftHandPinky2
										{
											OFFSET 4.52789 0.00000 0.00000
											CHANNELS 3 Zrotation Xrotation Yrotation
											JOINT LeftHandPinky3
											{
												OFFSET 2.46976 0.00000 0.00000
												CHANNELS 3 Zrotation Xrotation Yrotation
												End site
												{
													OFFSET 0.00000 0.00000 0.00000
												}
											}
										}
									}
								}
							}
						}
					}
					JOINT pCube4
					{
						OFFSET 0.00000 10.91090 1.10792
						CHANNELS 3 Zrotation Xrotation Yrotation
						End site
						{
							OFFSET 0.00000 0.00000 0.00000
						}
					}
				}
			}
		}
	}
	JOINT RightUpLeg
	{
		OFFSET -9.98441 0.00000 0.00000
		CHANNELS 3 Zrotation Xrotation Yrotation
		JOINT RightLeg
		{
			OFFSET 0.00000 -42.11790 0.00000
			CHANNELS 3 Zrotation Xrotation Yrotation
			JOINT RightFoot
			{
				OFFSET 0.00000 -45.00020 -0.00001
				CHANNELS 3 Zrotation Xrotation Yrotation
				JOINT RightForeFoot
				{
					OFFSET 0.00000 -3.74820 0.00000
					CHANNELS 3 Zrotation Xrotation Yrotation
					JOINT RightToeBase
					{
						OFFSET 0.00000 0.06325 14.43120
						CHANNELS 3 Zrotation Xrotation Yrotation
						End site
						{
							OFFSET 0.00000 0.00000 0.00000
						}
					}
				}
			}
		}
	}
	JOINT LeftUpLeg
	{
		OFFSET 9.98441 0.00000 0.00000
		CHANNELS 3 Zrotation Xrotation Yrotation
		JOINT LeftLeg
		{
			OFFSET 0.00000 -42.11800 0.00000
			CHANNELS 3 Zrotation Xrotation Yrotation
			JOINT LeftFoot
			{
				OFFSET 0.00000 -45.00070 0.00000
				CHANNELS 3 Zrotation Xrotation Yrotation
				JOINT LeftForeFoot
				{
					OFFSET 0.00000 -3.74824 0.00000
					CHANNELS 3 Zrotation Xrotation Yrotation
					JOINT LeftToeBase
					{
						OFFSET 0.00000 0.06325 14.43110
						CHANNELS 3 Zrotation Xrotation Yrotation
						End site
						{
							OFFSET 0.00000 0.00000 0.00000
						}
					}
				}
			}
		}
	}
}
MOTION
Frames: 4
Frame Time: 0.050000
-0.0024688295962359075 0.006330993481098159 0.007407298847715198 0.019834578951847162 0.016964552189384318 -0.008433941687222477 4.489950465955183 2.4870742382127635 -2.0428502449751487 -0.7140912647693489 3.5072359150951717 0.42462969393042094 -0.6902196942611819 -1.1496168124690784 1.5401880033646014 0.009234374967107249 -0.34711063341297477 -0.21302663369183697 0.7027687171013416 11.888949841829476 -3.401178158257576 0.2691711355803616 -0.632670147017321 -9.221071723240522 1.501332126183438 -16.958955111038144 -0.8263588977246874 -8.994473727594393 3.207920122615849 -15.897887380428152 75.5719144365325 21.327372894864503 15.60979254500187 33.02134596654348 9.327612559031154 87.52731918833858 18.85796702428713 -0.32723268650806925 -7.720532423522154 4.54623491791908 -0.12410778477446865 -1.5687496985961402 -0.03803206794326797 0.04146339872539162 -56.23141947641646 0.005931077534874783 0.02277478852189492 -56.26248089540821 -38.775142884378326 -0.0007585911553123041 -0.0030718105966437217 0.020022129016810983 0.016716332483972477 -0.0031164288202955043 -0.02734041794192119 -0.015302176592769156 -0.015651838311101493 -36.68995111751302 0.0034204857986603458 0.03934304517379989 -0.03905865359960025 0.005173817155561155 0.00995409866426147 -0.016206944067511737 0.028609596118339416 -0.04543980024171707 -19.762056300220515 0.022245133831050826 -0.01939248102753551 -0.013745827573881793 -0.041063046345090254 -0.01342441932158149 0.026793527720286838 -0.0006828258785394273 0.026722589366284546 24.03087146250656 0.023773664567041004 0.0010104340753981029 28.881469706339793 -0.0061038640917423235 -0.018495170253699185 28.877831990361305 0.04359115450902729 0.01357945681026305 8.144858141082864 2.1011265701161523 13.91707499064762 -74.15987548855021 26.584448877807276 -10.310703284654872 -29.956862690299243 8.188404284615002 -80.65674447198276 -24.46988814818506 -8.446489126036113 6.034952480418374 -0.4783990459386319 0.08154969640719988 -8.104232485614862 -0.01846634394483157 -0.02965683731826625 44.562120957952246 0.013991833917172864 -0.04532866442472755 44.545842141152825 12.446306746169059 0.0037901184762655312 -0.022877465447816384 0.00412446408967009 0.014697085484015797 -0.005422312429910006 -0.00807683161533133 -0.03405922810941564 -0.04631919697542585 11.139359470374568 0.019716887410562413 0.01719390817970725 0.04548288132249913 -0.011431098302763676 -0.02522159737798002 -0.011396052939489056 0.04026738138013831 0.04387232567847726 4.76237128957417 0.01979225838493149 -0.012979397334606048 -0.02991016934103122 0.017996636272054677 -0.033405101624851725 -0.015449240406963308 0.013105628215254957 0.0206933247989203 -5.575604759859051 -0.047424440152435264 0.04368223214954185 -6.741363669263172 0.01690463019314478 -0.00713449366069347 -6.763784005090224 0.008635876169482106 0.045525483955138876 -0.013165953525190524 -0.014987147188008035 -0.01256495546888274 8.09101217224051 3.464697108490045 -19.236947576143738 0.009365402379240387 10.39815713155263 0.0061164680583824516 -5.601115878145495 -15.642675120826008 3.1917770231194873 0.025364708558253603 -0.022460982096337883 -0.0267212478747127 -0.012983688709334336 4.684838598731471 -0.007095579857513021 12.439879566931113 -8.225301025759409 6.8711336463176265 0.028273843099280098 46.34366997363695 -0.008881529972976825 -4.341091265826732 -14.72558960353427 -3.8239522853241135 0.013742708502111527 -0.003268271220037274 0.007488524373604734 0.03702017253556393 -10.779046193674105 0.022129495324767573 
-0.02622549988107241 0.025682345791968327 0.006306815375844609 0.001906149391709662 -0.04755378605750499 -0.006648872728834385 4.717530672960797 2.4634889478491937 -2.085452071487557 -0.7157420451530223 3.5129873827139373 0.41108850155683213 -0.6459576257228581 -1.1601005735365155 1.5381491656585904 -0.125361972629036 -0.3367292805054014 -0.19250816470909554 0.7151820529900794 11.923214961045344 -3.1899287618239565 0.3055168454692598 -0.5166703642524382 -8.626944139224774 1.4720650616360336 -16.886944081459635 -0.7788517095059905 -9.341645727752907 3.3376568368979647 -16.14966430185508 77.03992204361286 19.846420676016905 15.312918263943988 27.571160944938878 8.126990928376333 87.50686208413035 18.362406741224785 -0.46735261890853463 -7.011073273388466 4.492399619362089 -0.14509255967432935 -1.5708131196733779 -0.018020816492525862 0.018878671810282025 -56.26433782054516 0.04880169941124564 -0.019815463204193123 -56.19922892135397 -38.806320188122655 0.005608249119464039 -0.00983244211763915 0.00220073250752369 0.0009863125766370181 0.026967083958537367 0.03747585732873375 0.012668093419085577 0.04201387365815504 -36.68995672961593 -0.024249780466298214 -0.007040905157257362 -0.03809043785012592 0.003409912084253155 -0.04366509469968027 0.017778486065801697 0.009863701346134486 0.0491668099893138 -19.752807542918788 0.002903639321254038 0.008303395575395459 -0.022971169330595884 0.03903401526795705 -0.014144365433568215 0.013913355997355058 0.01600728684172209 -0.03503195749136184 24.042585736679353 -0.013888260121562206 0.029332222577067392 28.882881646238182 0.004652854288116999 0.04432735265779382 28.826183852063227 0.01768450027646515 -0.016971492211998222 8.496120764488543 2.159634514701334 14.072417448467828 -74.66668147674098 25.722927943112687 -10.688956330695191 -26.328901438754716 7.224466535907418 -78.54074968889975 -23.706603734367715 -8.074133576572653 5.802492035488169 -0.4272137707384093 0.09989608009914513 -8.083556137574243 0.004026280202682593 0.015469770852967923 44.60902875441465 -5.0298773558733676e-05 0.001342817078655678 44.61144333809427 12.470953363084961 0.025230740277494904 0.02160120100655151 -0.0211390256115404 0.020175399662085806 0.04430240821456269 -0.04263050532630374 -0.009101821609131654 0.018996136807026696 11.145241346656693 -0.009047946422847224 0.03627359193628242 0.037145580901722514 0.04031074326684185 -0.048615985051658116 0.03594932979912468 0.036471099320434915 0.03414725900941376 4.7785619414973715 0.03689295832990279 0.02938617101367035 0.04984788357201126 -0.005588407583325555 -0.029313179429062957 -0.047250061542842246 0.04010675918953513 -0.01267430638047585 -5.560733963521844 -0.005643650442246286 0.046556075352330605 -6.686995786195196 -0.022054105624963346 -0.04444579751850101 -6.7322282065443275 0.014602101188398465 0.03672925588391119 0.03817045884263869 -0.029099004660323797 0.03578911399415361 8.074245345374807 3.5288730322460764 -19.22140210848305 -0.026326162919855713 10.370547663841887 0.010082556935334155 -5.655862541780152 -15.666871201059415 3.1731671916450592 -0.02212897494014871 0.03903512362334928 0.010590343210158434 0.04491430703139231 4.72381243960099 0.007748532540635531 12.479200533315066 -8.217236075136782 6.92237235550565 0.02465545478154855 46.331913275991965 -0.028435316273229337 -4.328746034630485 -14.70632681982798 -3.829767149519271 0.029496084156578076 0.027492760253930045 -0.023022878543427543 0.01953163563599835 -10.747134129038672 0.03776143943821179 
-0.0030819966598642327 -0.0056229704922004745 -0.011926622387700926 -0.024966209969632475 -0.014875781235010023 -0.027540670226197314 4.783816178600176 2.359517631712649 -2.1670039257396487 -0.6862458675032126 3.5453540442090956 0.3986277743809368 -0.6695607436779589 -1.20913594854281 1.4859184691895968 -0.238866888848051 -0.3861590277266957 -0.2026119774767171 0.6523130035480947 11.9347804157257 -2.9820233939241865 0.3949873386994457 -0.4772421171090328 -7.992572478552464 1.4522091440931297 -16.79650383912816 -0.6673806012204593 -9.541796370387537 3.4045504224098075 -16.4578422183873 78.1929675242864 18.999631445179652 14.66991501888509 22.460335961746658 6.830793253368367 88.43461369946877 17.71579382328048 -0.49442325093255035 -6.190379502486387 4.502625368484524 -0.143266191315832 -1.6236788105094884 -0.029447553474324758 0.03460148878941296 -56.237890055151105 0.012505693846489488 0.04401339249209337 -56.28235316408294 -38.75649124315479 -0.014391686817671886 -0.016584216958585026 -0.003794275371243373 -0.022078878491237255 0.01249689515007362 0.01189156981119343 0.007824790220710871 0.02082639343109168 -36.73034894471425 -0.002891890795750137 0.034796988181684786 0.028266032735817202 -0.04558751846865709 0.020867539449832193 -0.013748532304414704 0.014074980594507801 0.027879979867037163 -19.790848644474412 0.03729817619316383 -0.017925583478934772 -0.030767063236996028 -0.004802968183010902 -0.020128638003572265 0.007272075297203045 0.03735771487124904 -0.023888822982974182 24.028732061318244 -0.02914102251452925 0.01775708285992496 28.863286703630838 -0.03108481742342488 -0.03749845619362055 28.87837972548461 0.012342427179783665 0.031128541758466712 8.782316483143305 2.226222708063438 14.234475900741604 -75.2483707583081 25.190616512735907 -10.68089266987262 -24.234269506106127 6.894596857017932 -77.55513244712375 -23.042103043029698 -7.909669747867846 5.603509811073624 -0.4472160787026294 0.04187542774428191 -8.132542522461035 0.014997987419158344 0.018092170584376684 44.597870633992876 -0.025995705855584108 0.012817427301401015 44.58268596250767 12.467537859228852 0.02679969441868798 0.024577597716287435 0.007448274267898672 -0.01607009460617003 -0.04273484726931662 0.020846650283600887 -0.02395231854992223 0.001632661657107484 11.083335511797683 0.003078774415539647 0.026168364035505928 0.010852787515102224 0.04338125202897403 -0.04749821170349504 0.04447470878830019 0.04755804146139861 -0.04234823626380994 4.7715656472002665 0.02310557214488876 0.03728490745945629 0.021483787799443137 -0.026201149321672286 -0.02117564817383665 0.009385544847730735 -0.03856499557335633 0.004823696591226936 -5.605805340201256 0.014926182639744755 -0.02279077526931888 -6.710224114659001 -0.002691434611161946 -0.013762708574871616 -6.717727459307049 0.031573001476897976 0.002331435624163342 0.013333863142293387 -0.044595840244105386 -0.033565065971887895 8.084677872280054 3.4975233817580853 -19.230175594495705 -0.0238976880182008 10.40429282987925 0.011451443915623399 -5.626540932378221 -15.647330216843297 3.2223351049637516 -0.004196368907982814 0.019330716174862338 -0.024920890398258455 0.013137214383671755 4.684907070561894 0.018393573499359172 12.502601334603154 -8.19828151299307 6.909197751756508 0.023033144267344763 46.42769872787532 0.012774335920377416 -4.3107400583957105 -14.69991374988184 -3.8587582514190895 0.010673831829460497 0.008371349610418055 -0.022455905627835185 -0.021046519140250318 -10.713232212887783 -0.04070974187532245 
0.017523816620657738 -0.001972663871802707 -0.008966779408226858 -0.04999813176879321 0.021458563407090334 0.030842012570213653 4.764701872816701 2.2608461544455465 -2.2165167648694197 -0.7011081246815261 3.4603672768814016 0.4074048866035564 -0.6919961137354212 -1.2228135177786272 1.477811869232984 -0.3017867951220897 -0.44663452207772647 -0.2109889452868178 0.5443067737123038 11.852323982839053 -2.733108744788775 0.40865254007748947 -0.3884072642384923 -7.0278207905765555 1.3425300741355712 -16.657909203231437 -0.634099145168409 -9.584781487410575 3.4206771593277807 -16.6967902729412 79.38555459539599 18.91242145243105 13.49187581632384 17.48251926190419 5.2722221145014805 89.98415923260768 17.217591678805896 -0.48228166311214415 -5.536694606509135 4.5713294495287204 -0.09623405156332132 -1.6079592907338374 -0.007950230108474836 0.0003762553617371628 -56.208186676366665 -0.014376237578891003 0.019637049012741714 -56.19770923967431 -38.757475115190445 -0.03442385798044125 -0.043127275453404924 0.010514022955111673 0.013389908386726821 0.03560173501333871 -0.048842785858585806 0.0261806364010853 0.04101097762497219 -36.73771097952076 0.01677092158782508 -0.016690827883165137 0.04850970426255849 -0.031046528955023064 -0.03160434428208752 0.044052404696477344 -0.03895519318037352 -0.02666236227156114 -19.725856140818397 -0.03382098837415566 0.014544880178522405 -0.0033851790819070795 -0.036569824440877356 -0.020489024652070417 -0.0457620455083329 -0.046669795750079374 -0.029229109322508984 24.07918679343854 0.018516247259871162 -0.0009965439554242095 28.819296012116638 0.017733256924330545 -0.008648004623801874 28.859420907185996 0.02054522247074916 -0.012904138332337101 8.948934043054523 2.2471929221923452 14.353143637658135 -75.73038203279336 25.18113200786576 -10.414600239465415 -23.82745305341089 7.069699873698425 -77.54185384599681 -22.57020570802684 -8.071605488882607 5.7373294644272095 -0.4485641128163177 0.06170260637605939 -8.129459720484226 -0.004245783375994485 0.023016151606750856 44.606561159928134 0.036140478942071466 -0.003440817532634716 44.5678966597053 12.444954451073173 -0.0408324259581705 0.0026581534699746437 0.039980870472321066 0.00030556213265983353 -0.016993783932910053 0.02724499257989672 -0.006561054601118595 -0.04578809687278789 11.091866448562028 -0.013376419721790172 -0.017757479567806475 -0.005080066274605104 0.008917250565964211 0.0240011847078222 0.036420139685443984 -0.02111475573661262 0.015885088153430295 4.820871283100597 0.012879117832448706 0.00916649482256228 0.045621968384558294 0.04060208715696257 -0.027044128036313213 0.016887994238432482 0.030085649024381166 -0.02807698882125194 -5.594403354647851 0.0008161469254237722 -0.019329932141949526 -6.671574430131688 0.043309363944428164 0.034726147219832096 -6.6927458155095545 0.01678845899737312 -0.045150310990703824 -0.04490110788274282 0.007695368731719073 -0.04458465873925317 8.045415346080452 3.4816722937889035 -19.19039164160728 0.03603147869697967 10.427657985593743 0.04018571432799649 -5.661755177728527 -15.66718826869299 3.145450668233973 -0.014483075256831308 -0.01843199805708824 -0.013448698321299442 -0.003795933266166001 4.718936892943656 0.004039305087391811 12.420329814421786 -8.235333962300041 6.916642065221708 -0.004601455659948476 46.33692023332369 -0.01610792661356341 -4.301216750856402 -14.707660646628835 -3.8279853033960345 -0.03303051340197077 -0.024478229394600707 -0.007966119056545368 -0.014419335571482637 -10.702350946876692 -0.0023970981610652517 
